<?xml version="1.0" encoding="UTF-8"?>
<svg width="305px" height="247px" viewBox="0 0 305 247" version="1.1" xmlns="http://www.w3.org/2000/svg" xmlns:xlink="http://www.w3.org/1999/xlink">
    <!-- Generator: Sketch 51.2 (57519) - http://www.bohemiancoding.com/sketch -->
    <title>Tablet</title>
    <desc>Created with Sketch.</desc>
    <defs></defs>
    <g id="Tablet" stroke="none" stroke-width="1" fill="none" fill-rule="evenodd">
        <path d="M195.7856,92.6219 C195.1536,93.8489 193.5136,94.4659 193.7576,96.2659 C193.8376,96.8569 192.9666,97.4639 192.4506,97.3869 C190.7826,97.1389 190.2676,98.4499 189.2826,99.2599 C187.7016,100.5579 185.9536,101.2039 184.9616,98.4519 C183.4976,94.3899 182.1936,90.2939 182.0976,85.9229 C182.0256,82.7039 181.4956,79.5779 180.4566,76.5199 C179.6946,74.2799 179.1036,71.9819 178.3976,69.5789 C178.0606,69.4329 177.8886,69.8269 177.7276,70.1919 C172.8836,81.2639 167.9806,92.3099 163.2486,103.4299 C162.1436,106.0249 160.3546,108.1439 159.0056,110.5599 C157.6706,112.9509 151.2686,111.7719 149.9506,109.3419 C148.7626,107.1479 148.1966,105.2489 150.0326,103.1339 C151.0126,102.0049 149.5066,100.5409 150.2506,99.2469 C150.8456,98.2139 151.5706,97.2179 151.6946,95.6939 C150.2496,96.3779 149.8186,97.6839 149.1176,98.7349 C148.7226,99.3269 148.4706,100.0359 147.9996,100.5509 C147.1766,101.4499 146.0276,101.9499 144.9396,101.2869 C143.8656,100.6319 144.6716,99.4799 144.9786,98.7889 C146.8196,94.6349 148.1496,90.2849 149.8816,86.1039 C153.7886,76.6759 157.7256,67.2379 162.2056,58.0759 C165.7646,50.7989 169.1436,43.3389 174.3876,37.0019 C175.1066,36.1329 175.7126,35.0079 177.1326,35.7809 C179.1986,36.9079 180.3466,35.8259 181.3716,34.1599 C182.2896,32.6689 183.2476,31.1849 184.3516,29.8339 C185.9056,27.9339 187.8866,28.1539 188.9316,30.4199 C189.5676,31.8019 189.8356,33.3779 190.1146,34.8949 C191.6846,43.4289 193.2056,51.9719 194.7566,60.5089 C194.8576,61.0709 195.0726,61.6139 195.4486,62.8959 C198.8716,56.3439 201.8966,50.4269 204.6366,44.3509 C207.9846,36.9199 211.1786,29.4179 215.1276,22.2619 C216.4146,19.9289 218.3326,19.4529 220.2776,20.2429 C222.3136,21.0689 221.8106,23.2599 221.1966,24.8929 C220.0116,28.0489 218.5826,31.1119 217.2546,34.2149 C217.2776,34.9499 217.5766,35.1549 218.2116,34.7109 C219.5136,34.1759 220.1866,33.2009 220.7966,31.9019 C222.4616,28.3549 224.3436,24.9109 227.0526,21.9899 C228.2226,20.7279 229.4536,19.2359 231.1766,20.4639 C232.7426,21.5809 231.3466,23.0679 230.8486,24.3509 C229.3926,28.1049 226.2806,31.0179 225.4076,35.0709 C225.0756,36.6139 224.7186,38.1499 224.3676,39.7099 C225.5386,39.8819 225.8146,39.1509 225.9096,38.4379 C226.4396,34.4479 229.5636,31.9199 231.3736,28.6539 C231.7516,27.9719 232.3066,27.0089 233.2796,27.6669 C234.2826,28.3449 233.3986,29.1269 233.0556,29.8099 C230.7486,34.4009 228.1296,38.8649 226.2386,43.6199 C225.3216,45.9269 224.7456,48.4659 223.9406,50.8829 C220.2436,61.9899 214.5636,72.1859 209.4106,82.6249 C206.9436,87.6209 204.6066,92.6909 201.3836,97.2679 C200.6436,98.3189 200.0536,100.0349 198.4546,99.5879 C196.7016,99.0969 197.0106,97.3629 197.0976,95.9039 C197.1356,95.2949 196.9936,94.6749 196.9316,94.0589 C196.6296,93.5169 197.2986,92.1979 195.7856,92.6219" id="Fill-1" fill="#000000"></path>
        <path d="M66.7827,132.3787 C68.7577,137.1497 64.5807,139.2717 62.4147,142.0257 C61.2147,143.5537 59.4757,146.6607 57.7127,145.8717 C54.7527,144.5477 51.5997,142.8147 49.4897,140.1277 C44.3987,133.6467 38.8847,127.5367 33.4887,121.3207 C32.0617,119.6767 31.3687,119.7717 30.3837,121.9237 C26.5587,130.2817 22.5057,138.5357 18.5027,146.8127 C17.7837,148.2977 16.8717,149.6877 16.0997,151.1497 C14.7177,153.7657 12.2807,153.6017 9.8977,153.5097 C9.0087,153.4757 9.0897,152.7267 8.8307,152.0247 C7.3167,147.9137 8.0457,143.7007 8.2447,139.5777 C8.3987,136.3837 6.9747,136.6857 4.7737,136.8937 C3.2197,137.0407 1.4297,139.1197 0.3127,137.4797 C-0.8163,135.8217 1.4117,134.4087 2.2497,132.9887 C6.4627,125.8527 9.5387,118.1707 13.2107,110.7827 C16.5587,104.0477 20.5077,97.5967 23.7777,90.7977 C25.7047,86.7897 27.8167,82.9187 30.8437,79.5767 C32.6177,77.6167 34.3477,76.9477 36.2957,79.0297 C37.4717,80.2867 38.3707,79.8917 39.4927,79.1067 C41.4317,77.7477 43.4237,76.4637 45.3867,75.1387 C46.1367,74.6317 46.9287,74.4597 47.6917,75.0007 C48.4287,75.5247 48.0677,76.2477 47.9617,76.9707 C47.1087,82.8107 44.3567,87.8997 41.6947,93.0257 C41.4087,93.5757 41.0607,94.0977 40.8217,94.6657 C40.3277,95.8387 40.5547,97.0377 41.4817,97.7687 C42.4687,98.5467 43.2137,97.4307 43.8207,96.8597 C45.9247,94.8847 47.9727,92.8457 49.9577,90.7507 C51.8877,88.7127 53.9527,86.8357 56.3187,85.3437 C63.0357,81.1047 69.1787,76.1757 75.0817,70.8557 C76.7567,69.3457 78.9417,66.5267 82.4757,69.0567 C83.8127,70.0127 86.1377,68.0217 87.7007,66.9237 C89.9597,65.3377 92.4337,65.7487 94.7957,65.7827 C96.9897,65.8157 97.0167,67.2997 95.7167,68.7177 C92.1457,72.6087 88.1267,76.1417 83.8057,79.0187 C76.3237,84.0007 69.6947,90.0037 62.6517,95.4967 C58.0007,99.1237 53.0967,102.3397 48.2577,105.6637 C46.5917,106.8087 46.5357,107.4527 48.0037,108.8487 C53.0567,113.6497 58.0237,118.5227 63.4187,122.9727 C66.1537,125.2297 67.9017,128.5977 70.7297,130.9097 C71.4337,131.4857 71.3807,132.3957 70.5887,133.0707 C69.8827,133.6737 69.1467,133.9237 68.4227,133.1427 C68.0777,132.7717 67.8637,132.2627 66.7827,132.3787" id="Fill-3" fill="#000000"></path>
        <path d="M279.4467,13.5447 C278.6017,13.7917 277.7607,14.0407 276.9167,14.2857 C277.7597,14.0407 278.6037,13.7917 279.4467,13.5447 C279.7337,13.4037 280.0537,13.3377 280.3757,13.2727 C280.0697,13.3837 279.7637,13.4937 279.4467,13.5447 M303.8497,2.1787 C302.0197,0.6827 300.1387,-0.4603 297.2927,0.1847 C279.6207,4.1897 262.4557,9.9557 245.0537,14.8977 C243.9077,15.2227 242.4597,15.9287 242.6317,16.9507 C243.0767,19.6037 240.7527,22.0407 242.2577,24.6997 C242.6847,25.4557 242.3937,26.2927 241.9517,27.0567 C240.7717,29.0917 241.7797,29.6007 243.6827,29.5057 C244.5397,29.4627 245.9157,28.7337 246.1277,29.9157 C246.6827,33.0197 247.8377,36.0637 245.9627,39.3467 C244.6367,41.6657 243.5067,43.7527 240.7827,44.5527 C238.2097,45.3087 235.6277,46.0737 233.1337,47.0507 C231.2147,47.8017 229.5477,49.3987 229.9407,51.4517 C230.3267,53.4587 232.7137,52.5547 234.1967,53.0007 C234.2867,53.0277 234.4007,52.9567 234.5017,52.9657 C237.2167,53.1797 239.0587,55.8607 238.0747,58.3427 C236.8567,61.4097 235.4667,64.4077 234.2117,67.4617 C233.4597,69.2917 232.5337,70.7067 230.2367,70.7607 C228.5457,70.8007 227.1517,71.9767 226.7567,73.4317 C225.8697,76.6907 226.5747,80.3187 228.2577,82.7847 C230.7747,86.4777 233.8927,87.7617 238.1047,86.2857 C245.3347,83.7537 252.9427,82.7317 260.3327,80.8577 C267.6857,78.9917 275.3387,77.6807 281.5457,72.7327 C282.3697,72.1487 283.4427,71.7307 283.9567,70.9447 C284.6607,69.8707 285.5857,68.5717 285.0657,67.2277 C284.6027,66.0277 283.3807,66.4287 282.3867,66.7087 C281.6547,66.9097 281.4287,67.4127 281.2857,67.9647 C281.1997,67.0237 280.9057,66.0737 281.3487,65.1537 C283.4887,64.8377 285.6297,64.5207 287.7697,64.2047 C289.0007,64.0237 290.5007,63.2207 289.8857,62.1837 C288.8757,60.4767 289.7487,59.6027 290.3927,58.3277 C291.0637,57.0027 291.1497,55.3727 290.2607,54.1667 C289.3337,52.9087 287.8587,53.8777 286.8947,54.2647 C284.2797,55.3127 281.5337,55.7507 278.8537,56.4837 C271.0207,58.6297 262.8397,59.0617 254.6487,61.9857 C256.0727,57.3787 256.6787,53.6047 262.3077,52.8517 C271.9437,51.5627 280.7407,47.6887 288.4017,41.5467 C289.2107,40.8987 291.1707,40.2317 290.3967,39.2437 C288.8007,37.2067 290.3097,36.0957 290.9987,34.6337 C292.8537,30.6917 292.4307,30.0937 288.1427,29.8487 C286.8277,29.7737 285.6867,30.1367 284.5337,30.5007 C278.6507,32.3607 272.6957,33.8087 266.2377,34.1487 C267.2947,31.3547 268.2817,28.7827 269.2337,26.1977 C269.5007,25.4727 269.8627,24.9187 270.6657,24.7277 C273.5807,24.0327 276.4627,23.1507 279.4107,22.6547 C284.1437,21.8587 288.6187,20.2847 292.9727,18.3837 C294.1127,17.8867 296.3567,16.4897 294.9417,15.2797 C291.6167,12.4357 295.2807,12.8647 296.1547,12.2427 C297.1217,11.5547 298.3527,10.9487 297.8007,9.7017 C297.3267,8.6297 296.1847,9.5997 295.3317,9.6867 C290.7897,10.1537 286.9307,13.2957 282.2057,13.0347 C281.8847,12.9407 281.5837,12.9497 281.2907,13.0017 C281.5447,12.8827 281.7777,12.7147 281.9617,12.4357 C285.9217,11.6477 289.5497,9.8207 293.4757,8.8547 C296.7507,8.0477 300.0587,6.9577 302.8977,4.9847 C303.7757,4.3747 305.4407,3.4787 303.8497,2.1787" id="Fill-6" fill="#000000"></path>
        <path d="M120.7328,82.1111 C120.4618,82.6141 120.1428,82.9041 119.6568,83.0991 C116.1358,84.5181 112.6148,85.9391 109.0928,87.3591 C113.3398,78.7701 120.0368,72.0751 125.4788,64.3791 C124.1918,70.4141 123.7168,76.5921 120.7328,82.1111 M143.1998,46.0381 C141.3978,45.9021 139.2278,44.3261 137.6538,46.1951 C136.3828,47.7061 134.6698,48.3531 133.1468,49.3771 C132.8068,49.9561 133.3068,50.6651 132.8598,51.2271 C129.6698,51.5331 127.2148,53.2701 124.8468,55.2441 C124.1678,55.8091 123.1838,56.5401 122.3398,55.8691 C121.5678,55.2551 122.2298,54.3591 122.6268,53.6441 C122.9578,53.0481 123.7088,52.3781 122.8628,51.7971 C122.1218,51.2881 121.5028,52.0491 121.0178,52.5361 C117.9288,55.6421 114.1898,58.2041 113.2278,62.9931 C112.8288,64.9761 111.5648,66.7371 110.1348,68.2691 C102.3388,76.6281 95.1458,85.5071 87.9588,94.3771 C85.6488,97.2271 83.5078,99.4571 79.5168,99.6591 C76.4508,99.8141 75.3998,102.4661 77.3318,104.7491 C78.4268,106.0421 78.3308,106.9051 77.7488,108.2801 C75.8218,112.8361 74.0308,117.4501 72.2298,122.0571 C71.8178,123.1111 71.3288,124.4211 72.6118,125.1091 C73.6668,125.6741 74.4938,124.7951 75.1928,123.9601 C76.0748,122.9071 77.0398,121.9241 77.9518,120.9291 C78.6588,121.5591 78.4148,122.0491 78.3338,122.5531 C77.8718,125.4141 77.2208,128.2241 76.2708,130.9651 C75.3168,133.7131 77.3498,134.6011 79.1958,135.5741 C81.1718,136.6161 81.5408,134.9831 82.3718,133.7861 C88.2188,125.3761 93.0818,116.3671 98.4088,107.6411 C98.9958,106.6801 99.4128,105.4791 100.5898,105.1181 C104.7898,103.8281 109.0168,102.6221 113.5128,101.3011 C112.5058,105.5601 112.4478,109.7601 112.0378,113.9271 C111.7358,116.9851 113.1428,118.4941 116.1148,117.7541 C117.6938,117.3601 117.9358,117.7541 118.4108,119.0631 C119.5428,122.1771 121.9978,123.4961 124.6698,122.2071 C126.1668,121.4841 127.4498,121.3431 129.0278,121.4681 C132.6498,121.7551 134.0528,120.6341 134.4698,116.9401 C136.0428,103.0051 139.5908,89.3911 141.1498,75.4511 C141.4758,72.5321 142.2738,69.5141 142.3328,66.6931 C142.4568,60.8141 142.9698,55.0371 143.9408,49.2631 C144.1368,48.1001 144.6098,46.1431 143.1998,46.0381" id="Fill-8" fill="#000000"></path>
        <path d="M150.1738,166.3221 C148.6118,166.8251 147.4988,167.3621 146.3408,167.5031 C145.3528,167.6231 143.9448,168.2181 143.4588,166.6831 C143.0358,165.3531 143.0308,163.8091 144.2748,162.8921 C145.5778,161.9301 146.7218,160.5431 148.3918,160.3151 C153.9338,159.5621 156.7518,155.7781 158.3828,150.5781 C158.7948,149.2661 159.3308,148.0001 159.7908,146.7051 C160.1648,145.6501 161.1378,144.3821 160.1688,143.5111 C159.3978,142.8191 158.0508,143.2681 156.9618,143.5921 C152.9588,144.7771 151.6398,143.7811 151.0188,139.6601 C150.7948,138.1731 151.3988,137.7501 152.3718,137.3291 C160.2748,133.9091 168.1748,130.4851 176.0868,127.0861 C185.5358,123.0261 195.4208,120.4071 205.1828,117.3901 C206.2938,117.0481 207.7788,116.7031 208.5578,117.9351 C209.3748,119.2291 209.0328,120.7841 208.2788,122.0891 C207.7578,122.9911 207.1868,123.9641 206.4058,124.5681 C205.3898,125.3541 205.0208,126.0791 205.8728,127.1241 C207.1098,128.6431 206.4668,129.8721 205.3938,131.0111 C203.6928,132.8201 201.9368,134.4381 199.2978,134.6431 C193.9108,135.0621 188.9058,136.9971 183.9858,139.2321 C181.4438,140.3871 178.4728,140.8641 177.3968,144.1541 C176.7258,146.2021 176.2268,148.3131 175.2288,150.3381 C182.4278,145.1341 191.2388,145.4421 198.9278,142.1161 C201.1208,141.1681 202.2798,141.6811 201.5178,144.5171 C201.1348,145.9441 200.7888,147.4921 201.3138,148.9161 C202.2768,151.5231 201.8788,153.6361 199.7758,155.3871 C199.4838,155.6321 199.1048,156.1571 199.1768,156.4291 C200.2198,160.3511 196.8338,160.1521 195.2128,160.4381 C188.0638,161.6981 181.7578,165.4361 174.9388,167.6051 C173.6868,168.0041 172.5318,168.9201 171.2728,169.0791 C166.9728,169.6241 166.2008,173.3671 164.8518,176.6041 C164.1978,178.1761 165.0188,178.7001 166.2488,178.1211 C170.7268,176.0101 175.7398,175.6491 180.0488,172.7231 C182.8298,170.8351 186.4098,170.1351 189.7198,169.2841 C191.9688,168.7051 193.3178,170.7001 194.6078,172.2991 C195.9148,173.9191 193.9038,174.3251 193.5318,175.3391 C192.9108,177.0271 191.6518,178.6001 194.3138,180.0291 C196.5288,181.2171 196.5628,183.9151 196.2188,186.2961 C195.8848,188.6051 195.0318,190.4281 192.3958,190.8681 C179.5178,193.0131 168.1738,200.0291 155.8208,203.8641 C153.4028,204.6151 151.0948,205.8211 148.6468,206.3701 C147.2388,206.6851 146.1358,206.8601 145.4938,203.9511 C144.7438,200.5521 145.7018,198.9191 147.1938,196.5941 C147.9728,195.3811 146.6668,194.7451 145.5238,194.8911 C144.1278,195.0711 142.7588,195.4871 141.3638,195.6861 C140.5148,195.8081 139.5178,196.1271 139.1048,194.7941 C138.8128,193.8511 138.6458,193.0421 139.2968,192.1121 C143.1308,186.6441 144.5358,179.9921 147.1548,173.9281 C148.1808,171.5511 149.0718,169.1101 150.1738,166.3221" id="Fill-10" fill="#000000"></path>
        <path d="M115.8364,210.0828 C115.6064,213.8388 113.8644,217.0748 112.1934,220.3038 C110.4184,223.7318 107.1844,223.0438 104.2004,222.7938 C103.0244,222.6948 101.8714,222.3408 100.5234,222.0648 C101.3614,219.9228 101.1304,217.9588 99.7144,216.0728 C98.6954,214.7178 98.9054,213.2898 99.9764,211.8708 C100.5384,211.1268 101.0764,209.8768 99.8584,209.2378 C98.7454,208.6548 98.3594,209.8748 97.8304,210.5708 C96.8484,211.8618 95.9074,213.1888 94.8514,214.4178 C94.4284,214.9098 93.7984,215.5618 93.0314,214.9918 C92.4794,214.5828 92.5304,213.9118 92.8374,213.3288 C97.3754,204.7138 97.8104,194.7698 101.8064,185.9488 C107.7044,172.9338 112.5924,159.4728 119.0684,146.7068 C120.2764,144.3238 122.3524,143.7118 124.6614,143.9568 C128.0994,144.3208 130.8244,143.5538 132.7284,140.4308 C133.2744,139.5338 134.2574,138.6658 135.2324,138.3118 C138.7904,137.0168 140.5574,138.5318 139.8204,142.2448 C139.3704,144.5128 138.7914,146.8048 137.8824,148.9188 C136.6994,151.6738 134.8394,154.1518 136.0944,157.4558 C136.3684,158.1778 135.9994,159.3068 135.6094,160.0898 C132.3494,166.6388 130.5084,173.7768 127.1594,180.2908 C125.1874,184.1268 125.8694,188.7588 123.7114,192.5408 C121.5874,196.2618 119.9364,200.1088 119.1064,204.3538 C118.6804,206.5298 117.3064,208.4058 115.8234,210.1038 L115.5854,209.9468 L115.8364,210.0828 Z" id="Fill-12" fill="#000000"></path>
        <path d="M76.7485,183.3211 C76.1725,184.9681 75.0685,187.0251 73.3255,189.5631 C65.3895,199.0171 49.3005,217.2971 44.6925,221.7811 C47.0225,216.9301 49.3495,212.0801 51.8205,207.3101 C55.7935,199.6371 57.3005,189.3941 61.3395,181.7781 C68.9605,179.6491 78.1025,178.4091 76.7485,183.3211 M99.7355,173.5511 C100.8895,168.5771 100.4735,164.5001 93.0185,161.1581 C85.5635,157.8161 75.5895,161.4721 61.1515,164.2381 C61.2085,163.5301 61.3995,162.8171 61.7265,162.0931 C60.4835,161.7071 59.4265,161.2601 58.3335,161.0601 C55.5615,160.5501 52.5795,159.5951 50.7295,162.7481 C49.9015,164.1601 49.0625,165.5731 48.3605,167.0531 C41.3215,168.8571 36.2205,170.7311 35.9135,172.2291 C35.2935,175.2541 35.5815,178.5011 34.2285,181.3781 C33.6075,182.6981 33.2725,184.0471 35.7655,183.6751 C37.7275,183.3831 39.5455,182.7761 41.4005,182.2031 C41.5825,182.1471 41.7325,182.1021 41.8625,182.0651 C40.9195,184.3261 39.7485,186.4621 38.4145,188.5341 C36.1855,191.9941 33.9085,202.5551 31.8515,206.0841 C28.3575,212.0761 26.2385,218.8051 22.8255,224.8401 C22.4175,225.5611 22.0095,226.6191 22.2255,227.3411 C22.2865,227.5471 22.3365,227.7481 22.3765,227.9461 C21.9995,228.4011 21.5935,228.8321 21.1365,229.2191 C19.1345,230.9171 19.0125,233.4691 18.1405,235.6811 C17.8095,236.5211 18.1495,237.4121 19.1495,237.3871 C19.1815,237.3861 19.2035,237.3901 19.2335,237.3901 C18.6965,238.7901 18.2615,240.2451 17.8905,241.6991 C16.9945,245.2191 18.5605,246.8421 21.9555,245.9111 C22.8855,245.6561 23.8525,244.9051 24.4135,244.0891 C25.9275,241.8821 27.8285,241.0971 30.0905,241.1601 C30.5715,242.0951 31.6395,242.6991 32.7235,243.2811 C34.6655,244.3251 35.8365,243.9491 36.9165,241.7671 C36.9955,241.6101 37.0715,241.4751 37.1485,241.3291 C41.6035,240.1021 51.4905,236.1901 62.2535,224.1451 L63.3185,223.0251 L69.9775,218.1371 C72.5885,216.0941 75.0755,213.6591 77.4395,210.8261 C77.3815,210.4041 80.9465,207.0941 85.3985,201.1381 C89.9835,194.1041 98.7465,177.8171 99.7355,173.5511" id="Fill-14" fill="#000000"></path>
        <path d="M282.8032,107.7039 C281.6182,106.5129 281.1602,104.9449 280.5322,103.4889 C279.5842,101.2989 278.2992,100.3619 275.7612,101.2969 C273.8302,102.0089 271.4482,103.8089 270.4482,100.0999 C270.2072,99.2099 268.9882,99.5909 268.2162,99.8659 C256.0452,104.2179 243.2662,106.4769 231.1992,111.2269 C230.9142,111.3399 230.6242,111.4399 230.3362,111.5439 C230.3072,111.5219 230.2762,111.5019 230.2452,111.4789 C230.2302,111.5169 230.2142,111.5559 230.1992,111.5949 C226.9192,112.7539 223.4472,113.4029 220.0962,114.3949 C219.0992,114.6899 217.3402,114.3679 217.3472,115.7309 C217.3532,116.9059 218.3592,118.3009 219.6962,118.5999 C222.3792,119.2019 222.2542,121.0529 222.0762,123.0579 C222.0322,123.5649 222.0342,124.0209 221.5932,124.4379 C221.5272,124.5009 221.4712,124.5599 221.4082,124.6209 L220.6402,124.8609 C220.6102,125.1179 220.5652,125.3759 220.5202,125.6349 C219.7512,126.7059 219.7442,127.5639 220.5372,128.2249 C220.8502,129.4159 221.5902,130.3899 222.5352,131.0489 C224.7282,132.5779 238.9822,145.7399 247.5002,153.9219 L210.2562,170.1359 C207.8972,171.4329 208.0212,174.1919 208.2702,175.9019 C208.4882,177.3979 210.6502,175.5409 211.9942,175.5669 C212.9712,175.5859 213.9512,175.4429 214.9242,175.4969 C217.6842,175.6489 217.8242,176.2569 216.8972,179.0689 C216.3512,180.7219 214.9682,180.9339 213.9992,181.8219 C212.8722,182.8539 211.4422,183.6659 213.1002,185.4109 C213.6912,186.0319 213.3022,186.7669 213.2732,187.4409 C213.2082,188.9169 213.8512,189.3819 215.2422,189.2989 C218.2512,189.1179 220.8322,187.7179 223.5772,186.6629 C234.4912,182.4689 244.9052,177.1439 255.4712,172.1629 C255.8742,171.6339 256.3322,171.1949 257.0302,171.1429 C262.4642,168.9029 267.7422,166.3189 272.9412,163.5559 C273.8352,163.0789 274.3692,162.3319 274.1622,161.3809 C273.9212,160.2669 272.6662,160.7259 272.1362,160.3819 C270.3632,159.2309 268.8762,157.6059 267.2892,156.1519 C267.2582,156.1239 267.3062,155.9359 267.3662,155.8779 C269.4302,153.8779 267.9702,151.5909 267.9442,149.3759 C267.9302,148.2719 267.7222,147.6099 267.3212,147.2969 C267.4002,147.2779 267.4802,147.2619 267.5602,147.2429 C266.6062,146.2229 265.5252,145.3389 264.4082,144.5999 C259.7342,141.5019 256.9942,136.8419 253.3512,132.9959 C251.3682,130.9019 248.9732,129.1179 247.0922,126.9819 L265.6622,121.7739 C270.7742,119.9789 275.3772,118.1779 280.0902,116.7569 C285.4352,115.1459 286.6242,111.5449 282.8032,107.7039" id="Fill-16" fill="#000000"></path>
    </g>
</svg>